<?xml version="1.0" standalone="no"?>
<!DOCTYPE svg PUBLIC "-//W3C//DTD SVG 20010904//EN"
 "http://www.w3.org/TR/2001/REC-SVG-20010904/DTD/svg10.dtd">
<svg version="1.0" xmlns="http://www.w3.org/2000/svg"
 width="500.000000pt" height="500.000000pt" viewBox="0 0 500.000000 500.000000"
 preserveAspectRatio="xMidYMid meet">
<metadata>
Created by potrace 1.11, written by Peter Selinger 2001-2013
</metadata>
<g transform="translate(0.000000,500.000000) scale(0.100000,-0.100000)"
fill="#000000" stroke="none">
<path d="M2240 4894 c-52 -8 -115 -19 -140 -24 -25 -6 -65 -15 -90 -21 -71
-16 -214 -61 -224 -70 -6 -5 -19 -9 -29 -9 -11 0 -36 -9 -56 -20 -20 -10 -65
-31 -101 -46 -36 -14 -70 -30 -76 -35 -6 -5 -37 -23 -70 -40 -32 -17 -66 -37
-74 -44 -8 -6 -23 -15 -32 -18 -10 -4 -18 -11 -18 -17 0 -16 38 -50 56 -50 8
0 32 -9 52 -20 33 -17 63 -31 167 -75 34 -15 152 -70 306 -144 58 -28 115 -51
126 -51 10 0 44 21 74 48 55 48 82 67 109 79 8 3 33 14 55 24 52 23 193 34
271 21 76 -13 186 -64 239 -112 48 -45 73 -54 101 -37 19 11 75 44 192 114 21
12 51 29 67 38 17 8 39 21 50 28 38 23 180 101 250 137 136 70 153 84 118 97
-10 3 -25 11 -33 18 -22 18 -221 105 -240 105 -8 0 -24 6 -35 13 -11 8 -38 19
-60 25 -22 5 -53 15 -70 20 -53 18 -217 51 -330 67 -134 18 -420 18 -555 -1z"/>
<path d="M3735 4384 c-66 -35 -131 -68 -145 -74 -14 -5 -32 -14 -40 -20 -8 -5
-36 -20 -61 -34 -43 -22 -245 -135 -279 -156 -8 -5 -35 -21 -60 -36 -25 -15
-69 -42 -97 -61 l-53 -34 -2 -120 c-1 -65 -2 -133 -2 -150 -1 -27 7 -38 59
-75 33 -24 67 -47 75 -51 26 -12 389 -280 440 -325 80 -70 186 -148 201 -148
18 0 55 47 86 110 7 14 22 39 33 55 11 17 23 37 27 45 3 8 35 65 70 126 34 61
63 116 63 122 0 6 4 12 8 14 11 4 218 426 226 457 7 33 -35 88 -177 227 -128
126 -211 194 -235 193 -10 -1 -71 -30 -137 -65z"/>
<path d="M1028 4332 c-24 -10 -119 -103 -191 -187 -32 -38 -69 -81 -81 -95
-23 -27 -31 -38 -91 -125 -81 -116 -114 -172 -165 -275 -28 -58 -58 -117 -66
-132 -8 -14 -14 -32 -14 -40 1 -29 343 -391 381 -403 13 -5 29 0 42 12 21 18
72 44 150 77 27 11 69 16 145 16 112 0 175 -15 260 -60 20 -11 44 -18 53 -15
10 3 75 64 147 135 71 70 174 168 228 216 55 48 102 96 107 107 4 11 3 34 -2
51 -39 128 -44 157 -38 246 6 89 5 90 -21 108 -24 16 -173 90 -257 127 -16 7
-64 29 -105 48 -41 19 -86 38 -100 42 -14 4 -41 16 -60 26 -19 11 -39 19 -43
19 -5 0 -25 7 -45 16 -100 45 -119 53 -142 59 -14 4 -34 14 -45 21 -21 15 -23
16 -47 6z"/>
<path d="M2370 4074 c-48 -15 -100 -53 -135 -97 -39 -50 -40 -53 -43 -144 -4
-82 -1 -97 19 -130 32 -55 57 -80 107 -109 38 -22 56 -26 128 -26 86 0 114 10
172 60 89 77 112 229 51 328 -29 47 -96 102 -138 114 -37 10 -134 12 -161 4z"/>
<path d="M4392 3652 c-50 -98 -72 -142 -93 -182 -5 -8 -24 -44 -42 -80 -36
-69 -91 -165 -107 -190 -6 -8 -18 -31 -26 -50 -9 -19 -19 -37 -23 -40 -4 -3
-22 -32 -41 -65 -19 -33 -37 -62 -40 -65 -4 -3 -13 -22 -19 -42 l-12 -37 173
-173 c96 -95 216 -222 267 -283 52 -60 97 -112 101 -115 15 -11 210 -263 210
-271 0 -16 29 -9 34 9 3 9 12 57 21 106 14 72 16 140 13 370 -3 160 -9 303
-16 331 -6 28 -16 79 -21 115 -16 95 -67 288 -96 355 -7 17 -16 41 -20 55 -6
24 -13 40 -56 135 -20 44 -64 135 -92 190 -12 24 -24 35 -40 35 -18 0 -31 -19
-75 -108z"/>
<path d="M2829 3380 c-24 -22 -48 -40 -53 -40 -5 0 -17 -6 -25 -14 -9 -8 -32
-19 -51 -24 -19 -6 -53 -18 -75 -26 -67 -25 -191 -21 -282 11 -43 14 -88 33
-100 41 -35 22 -61 9 -148 -70 -120 -109 -354 -339 -376 -369 -17 -24 -17 -30
-5 -60 28 -70 40 -193 28 -276 -20 -130 -28 -116 118 -196 30 -17 73 -41 95
-53 78 -44 433 -217 513 -250 l42 -17 68 64 c37 35 69 66 72 69 7 7 51 32 85
47 17 8 38 19 48 24 29 16 164 29 230 22 34 -3 84 -14 110 -24 73 -29 90 -25
134 29 88 107 260 341 318 431 6 8 27 37 48 64 38 50 41 59 29 89 -8 19 -343
287 -457 365 -44 30 -107 74 -140 99 -33 24 -77 53 -97 64 -20 11 -39 24 -43
30 -12 20 -42 9 -86 -30z"/>
<path d="M300 3108 c-6 -24 -15 -54 -21 -68 -5 -14 -13 -59 -19 -101 -5 -41
-15 -88 -21 -105 -18 -42 -19 -673 -1 -729 7 -22 17 -73 22 -114 6 -41 17 -99
26 -130 9 -31 25 -87 37 -126 21 -76 51 -162 72 -210 7 -16 24 -55 38 -85 14
-30 28 -65 31 -77 6 -19 11 -21 26 -13 20 11 35 50 45 120 6 48 16 81 66 225
42 123 58 167 68 190 22 51 64 141 72 155 15 27 48 101 51 115 2 7 -20 41 -48
76 -55 68 -80 113 -113 196 -30 75 -30 269 0 344 l20 53 -133 134 c-174 175
-192 192 -200 192 -4 0 -12 -19 -18 -42z"/>
<path d="M1079 2880 c-196 -32 -273 -295 -128 -439 57 -58 80 -66 184 -66 99
0 102 1 142 33 23 18 57 52 75 75 32 40 33 43 33 142 l0 101 -40 50 c-36 46
-74 77 -115 95 -28 12 -105 16 -151 9z"/>
<path d="M3799 2589 c-18 -28 -37 -56 -43 -63 -6 -6 -33 -45 -61 -86 -27 -41
-107 -148 -177 -238 -131 -166 -145 -195 -115 -231 24 -28 51 -114 62 -196 12
-92 14 -94 132 -121 37 -9 79 -20 93 -26 14 -6 52 -16 85 -23 59 -13 201 -45
280 -65 36 -8 125 -26 310 -61 33 -6 82 -15 108 -21 26 -5 69 -8 94 -6 l46 3
29 75 c16 41 33 83 38 92 18 31 11 56 -32 120 -24 35 -45 65 -48 68 -3 3 -19
25 -35 50 -17 24 -36 51 -43 60 -7 8 -43 53 -79 100 -36 47 -69 87 -73 90 -4
3 -41 46 -82 95 -123 148 -409 435 -434 435 -15 0 -32 -15 -55 -51z"/>
<path d="M1465 2185 c-22 -19 -49 -38 -60 -41 -11 -4 -26 -12 -34 -18 -24 -19
-111 -38 -206 -45 -49 -3 -95 -9 -101 -13 -11 -8 -37 -58 -89 -173 -52 -115
-55 -123 -55 -134 0 -6 -9 -30 -19 -53 -11 -24 -29 -77 -41 -118 -11 -41 -28
-97 -36 -125 -33 -112 -62 -313 -63 -447 -1 -63 1 -69 41 -120 23 -29 89 -99
146 -155 127 -127 124 -126 307 -43 22 10 60 27 85 38 67 29 229 111 275 138
22 13 54 30 70 39 37 19 37 19 209 134 78 51 150 101 161 111 11 10 25 19 31
21 6 2 29 19 50 37 22 18 66 54 99 80 114 89 185 157 185 177 0 6 -5 16 -11
22 -17 17 -48 162 -49 226 0 74 -11 94 -64 117 -115 49 -435 206 -541 265 -22
12 -65 35 -96 52 -31 17 -67 38 -80 47 -36 25 -70 19 -114 -19z"/>
<path d="M2820 1962 c-134 -50 -198 -167 -170 -312 20 -105 138 -200 249 -200
88 0 183 55 231 134 21 35 24 53 25 132 0 74 -3 96 -17 111 -10 11 -18 24 -18
30 0 20 -94 90 -144 106 -61 21 -98 20 -156 -1z"/>
<path d="M3391 1412 c-14 -26 -59 -79 -103 -121 -53 -51 -57 -54 -113 -83
-170 -88 -307 -88 -488 -3 -57 27 -71 25 -123 -23 -50 -46 -266 -220 -324
-261 -25 -18 -70 -48 -100 -69 -30 -20 -57 -40 -60 -43 -3 -3 -27 -19 -53 -35
-27 -16 -67 -41 -90 -56 -23 -15 -51 -32 -62 -38 -11 -6 -38 -22 -60 -35 -22
-13 -71 -40 -108 -60 -38 -20 -76 -40 -85 -45 -38 -20 -189 -89 -209 -95 -38
-11 -26 -48 25 -74 205 -108 286 -144 452 -201 137 -47 379 -91 550 -99 242
-12 559 27 725 90 28 10 56 19 63 19 13 0 85 27 147 55 17 8 41 17 55 20 14 4
32 13 40 20 8 7 26 16 38 20 49 15 211 114 365 223 133 95 307 270 456 458 54
67 129 189 124 200 -9 23 -33 32 -122 44 -46 6 -93 15 -105 20 -12 4 -49 11
-82 15 -32 4 -70 12 -84 17 -14 5 -68 18 -120 30 -187 40 -297 66 -380 92 -25
8 -63 17 -85 21 -22 3 -48 8 -57 11 -10 3 -21 -3 -27 -14z"/>
</g>
</svg>
